<?xml version="1.0" standalone="no"?>
<!DOCTYPE svg PUBLIC "-//W3C//DTD SVG 20010904//EN"
 "http://www.w3.org/TR/2001/REC-SVG-20010904/DTD/svg10.dtd">
<svg version="1.0" xmlns="http://www.w3.org/2000/svg"
 width="445.000000pt" height="445.000000pt" viewBox="0 0 445.000000 445.000000"
 preserveAspectRatio="xMidYMid meet">
<metadata>
Created by potrace 1.11, written by Peter Selinger 2001-2013
</metadata>
<g transform="translate(0.000000,445.000000) scale(0.100000,-0.100000)"
fill="#000000" stroke="none">
<path d="M2098 3944 c-2 -1 -23 -4 -48 -7 -25 -3 -63 -9 -85 -13 -22 -4 -50
-7 -62 -8 -13 -1 -23 -4 -23 -7 0 -3 -6 -6 -12 -6 -34 -2 -169 -40 -223 -63
-11 -5 -54 -23 -95 -41 -41 -17 -93 -42 -115 -54 -22 -12 -55 -31 -74 -41 -39
-22 -39 -21 -103 -68 -25 -19 -49 -32 -52 -29 -3 4 -6 2 -6 -4 0 -5 -19 -23
-42 -40 -97 -70 -329 -321 -361 -390 -6 -13 -14 -23 -19 -23 -4 0 -8 -5 -8
-10 0 -6 -15 -34 -33 -63 -29 -45 -66 -118 -112 -222 -47 -104 -104 -330 -121
-480 -9 -77 -9 -261 0 -345 4 -36 9 -81 11 -100 2 -19 11 -61 18 -93 14 -57
16 -65 18 -69 0 -2 2 -10 4 -18 23 -107 127 -346 196 -448 16 -24 29 -45 29
-48 0 -3 4 -10 10 -17 5 -7 40 -50 77 -97 79 -99 183 -204 276 -277 76 -58
217 -150 225 -145 2 2 8 0 11 -5 6 -9 107 -59 181 -91 53 -22 159 -55 250 -77
227 -56 478 -62 700 -19 14 3 38 7 53 10 15 3 51 12 80 20 29 8 63 17 76 20
13 3 31 9 40 13 9 5 21 10 26 11 78 18 331 144 414 207 9 7 45 33 81 60 86 63
261 239 331 333 54 73 129 186 129 195 0 2 14 27 30 55 17 28 30 57 30 65 0 8
3 15 8 15 4 0 12 15 18 33 6 17 24 66 39 107 15 41 28 80 29 85 2 6 8 28 14
50 6 22 14 55 17 74 3 19 8 37 10 41 5 8 11 51 22 145 13 122 6 383 -14 469
-2 12 -6 38 -9 60 -2 21 -7 43 -11 50 -4 6 -8 16 -9 21 -8 41 -14 64 -23 88
-6 15 -8 27 -5 27 4 0 2 6 -3 13 -6 6 -16 30 -23 52 -14 43 -108 247 -119 255
-3 3 -15 21 -25 40 -61 110 -239 317 -359 415 -27 22 -54 45 -61 50 -6 6 -19
15 -27 20 -9 6 -36 23 -60 40 -106 71 -336 184 -389 190 -3 0 -9 3 -15 6 -28
17 -245 67 -330 76 -51 5 -373 12 -377 7z"/>
</g>
</svg>
